<svg width="20" height="20" viewBox="0 0 20 20" fill="none" xmlns="http://www.w3.org/2000/svg">
<path d="M9.45837 18.3333H5.00004C4.55801 18.3333 4.13409 18.1577 3.82153 17.8451C3.50897 17.5326 3.33337 17.1087 3.33337 16.6666V3.3333C3.33337 2.89127 3.50897 2.46735 3.82153 2.15479C4.13409 1.84223 4.55801 1.66663 5.00004 1.66663H11.6667M11.6667 1.66663C11.9308 1.66598 12.1924 1.71764 12.4364 1.81862C12.6804 1.9196 12.902 2.0679 13.0884 2.25497L16.0784 5.24497C16.2654 5.43136 16.4137 5.65295 16.5147 5.89696C16.6157 6.14097 16.6674 6.40256 16.6667 6.66663M11.6667 1.66663V5.8333C11.6667 6.05431 11.7545 6.26627 11.9108 6.42255C12.0671 6.57883 12.279 6.66663 12.5 6.66663H16.6667M16.6667 6.66663V11.125M11.6667 15.8333H16.6667M14.1667 13.3333V18.3333" stroke="#EDEEF1" stroke-width="1.5" stroke-linecap="round" stroke-linejoin="round"/>
</svg>
