<svg width="50" height="24" viewBox="0 0 50 24" fill="none" xmlns="http://www.w3.org/2000/svg">
<path d="M36.2316 12.9418C38.8062 11.463 41.3739 9.97225 43.9573 8.50881C46.4094 7.11953 49.2944 8.40081 49.8503 11.1044C50.172 12.6684 49.4737 14.358 48.0617 15.1809C43.4324 17.8786 38.7965 20.5656 34.1374 23.2115C32.6954 24.0304 31.2099 23.8797 29.8958 22.8762C28.5608 21.8574 28.1401 20.452 28.4532 18.8164C28.8106 17.5712 29.6288 16.7388 30.7445 16.116C32.5893 15.0865 34.404 14.0026 36.2316 12.9418Z" fill="#FABC05"/>
<path d="M38.1219 11.8665C35.5538 10.3763 32.9792 8.89771 30.4201 7.39241C27.9908 5.96337 27.6582 2.82431 29.7215 0.990801C30.915 -0.0695073 32.7273 -0.309783 34.146 0.501648C38.7971 3.16188 43.442 5.83339 48.0628 8.54523C49.493 9.38457 50.1051 10.7465 49.8935 12.3864C49.6784 14.0517 48.6718 15.1187 47.0989 15.6656C45.8417 15.9787 44.7118 15.6862 43.6146 15.0313C41.8004 13.9485 39.9545 12.9185 38.1219 11.8665Z" fill="#109D58"/>
<path d="M14.7154 10.812C13.0675 11.7482 11.4187 12.6828 9.77249 13.6219C8.80948 14.1712 7.85717 14.7393 6.88919 15.2795C4.93889 16.3681 2.62178 15.7301 1.51598 13.8126C0.460639 11.983 1.06716 9.61079 2.94539 8.51436C7.53776 5.83386 12.142 3.17287 16.7628 0.541691C18.18 -0.265343 19.6503 -0.163842 20.9608 0.800891C22.344 1.81915 22.7968 3.252 22.4862 4.93183C22.2935 5.33821 22.1785 5.81475 21.89 6.13493C21.4208 6.65581 20.8874 7.15452 20.2937 7.52076C18.4564 8.65371 16.578 9.71994 14.7154 10.812Z" fill="#E94436"/>
<path d="M12.8258 11.8622C14.4607 12.821 16.0944 13.7819 17.7309 14.738C18.688 15.2974 19.6561 15.8381 20.6079 16.406C22.5259 17.551 23.132 19.8765 22.0243 21.7928C20.9672 23.6217 18.6098 24.2827 16.721 23.2041C12.1034 20.5672 7.49691 17.9106 2.90779 15.2243C1.50036 14.4005 0.853128 13.0764 1.03338 11.4591C1.22358 9.75191 2.23801 8.64343 3.84806 8.07247C4.2963 8.03634 4.76653 7.89756 5.18821 7.9874C5.87386 8.13344 6.57251 8.34581 7.18648 8.67688C9.08632 9.70144 10.9489 10.7952 12.8258 11.8622Z" fill="#4385F3"/>
</svg>
