<svg width="20" height="20" viewBox="0 0 20 20" fill="none" xmlns="http://www.w3.org/2000/svg">
<path d="M12.5001 18.3334V15.0001C12.616 13.9562 12.3167 12.9085 11.6667 12.0834C14.1667 12.0834 16.6667 10.4167 16.6667 7.50008C16.7334 6.45841 16.4417 5.43341 15.8334 4.58341C16.0667 3.62508 16.0667 2.62508 15.8334 1.66675C15.8334 1.66675 15.0001 1.66675 13.3334 2.91675C11.1334 2.50008 8.86675 2.50008 6.66675 2.91675C5.00008 1.66675 4.16675 1.66675 4.16675 1.66675C3.91675 2.62508 3.91675 3.62508 4.16675 4.58341C3.55998 5.42998 3.26548 6.46074 3.33341 7.50008C3.33341 10.4167 5.83341 12.0834 8.33342 12.0834C8.00842 12.4917 7.76675 12.9584 7.62508 13.4584C7.48341 13.9584 7.44175 14.4834 7.50008 15.0001M7.50008 15.0001V18.3334M7.50008 15.0001C3.74175 16.6667 3.33341 13.3334 1.66675 13.3334" stroke="#EDEEF1" stroke-width="1.5" stroke-linecap="round" stroke-linejoin="round"/>
</svg>
