<svg width="350" height="350" viewBox="0 0 350 350" fill="none" xmlns="http://www.w3.org/2000/svg">
<path d="M251.558 182.67C269.794 172.196 287.982 161.636 306.281 151.27C323.65 141.429 344.086 150.505 348.023 169.656C350.302 180.734 345.356 192.702 335.354 198.531C302.563 217.639 269.725 236.672 236.723 255.414C226.509 261.214 215.987 260.147 206.679 253.039C197.223 245.822 194.242 235.868 196.46 224.282C198.992 215.462 204.787 209.566 212.69 205.154C225.758 197.862 238.612 190.185 251.558 182.67Z" fill="#FABC05"/>
<path d="M264.947 175.053C246.756 164.498 228.52 154.025 210.393 143.362C193.185 133.24 190.829 111.005 205.444 98.0174C213.898 90.5068 226.735 88.8049 236.784 94.5525C269.729 113.396 302.631 132.319 335.362 151.528C345.492 157.473 349.828 167.12 348.329 178.736C346.806 190.532 339.676 198.09 328.534 201.964C319.629 204.181 311.625 202.11 303.853 197.471C291.003 189.801 277.927 182.506 264.947 175.053Z" fill="#109D58"/>
<path d="M99.1503 167.585C87.4777 174.217 75.7983 180.836 64.1379 187.488C57.3165 191.38 50.571 195.404 43.7145 199.23C29.8999 206.941 13.487 202.421 5.65425 188.84C-1.82105 175.879 2.47511 159.076 15.7793 151.31C48.3085 132.323 80.9217 113.474 113.653 94.837C123.691 89.1205 134.106 89.8395 143.389 96.673C153.186 103.886 156.394 114.035 154.193 125.934C152.829 128.812 152.014 132.188 149.97 134.456C146.646 138.145 142.869 141.678 138.663 144.272C125.649 152.297 112.343 159.85 99.1503 167.585Z" fill="#E94436"/>
<path d="M85.7659 175.024C97.3465 181.815 108.919 188.622 120.51 195.394C127.29 199.356 134.148 203.186 140.889 207.209C154.475 215.319 158.768 231.792 150.922 245.365C143.434 258.32 126.736 263.002 113.357 255.362C80.6492 236.684 48.0198 217.866 15.5135 198.839C5.5442 193.003 0.959639 183.624 2.23644 172.168C3.58364 160.076 10.7692 152.224 22.1737 148.18C25.3488 147.924 28.6796 146.941 31.6665 147.577C36.5232 148.612 41.4719 150.116 45.8209 152.461C59.2781 159.718 72.4712 167.466 85.7659 175.024Z" fill="#4385F3"/>
</svg>
